<svg xmlns="http://www.w3.org/2000/svg" viewBox="0 0 214.46 155.86"><defs><style>.cls-1{fill:#fff;}.cls-2,.cls-4,.cls-7,.cls-8{fill:none;stroke-miterlimit:10;stroke-width:3px;}.cls-2{stroke:#8dc63f;}.cls-3{fill:#8dc63f;}.cls-4{stroke:#ed1c24;}.cls-11,.cls-13,.cls-5{fill:#ed1c24;}.cls-6{opacity:0.29;}.cls-7,.cls-8{stroke:#231f20;}.cls-8{stroke-dasharray:4.66 4.66;}.cls-9{fill:#231f20;}.cls-10,.cls-11{font-size:12px;}.cls-10,.cls-12{fill:#00a651;}.cls-10,.cls-11,.cls-12,.cls-13{font-family:MyriadPro-Regular, Myriad Pro;}.cls-12,.cls-13{font-size:6px;}</style></defs><g id="Layer_2" data-name="Layer 2"><g id="Layer_1-2" data-name="Layer 1"><line class="cls-1" x1="108.69" y1="109.2" x2="108.69" y2="13.56"/><line class="cls-2" x1="108.69" y1="109.2" x2="108.69" y2="22.81"/><polygon class="cls-3" points="115.12 24.7 108.69 13.56 102.26 24.7 115.12 24.7"/><line class="cls-1" x1="107.7" y1="109.2" x2="19.91" y2="137.39"/><line class="cls-4" x1="107.7" y1="109.2" x2="28.73" y2="134.56"/><polygon class="cls-5" points="28.55 127.86 19.91 137.39 32.49 140.11 28.55 127.86"/><g class="cls-6"><line class="cls-1" x1="108.69" y1="107.71" x2="161.7" y2="155.86"/><line class="cls-7" x1="108.69" y1="107.71" x2="110.54" y2="109.39"/><line class="cls-8" x1="113.99" y1="112.53" x2="153.66" y2="148.56"/><line class="cls-7" x1="155.38" y1="150.12" x2="157.23" y2="151.8"/><polygon class="cls-9" points="153.51 154.08 161.7 155.86 159.14 147.88 153.51 154.08"/></g><text class="cls-10" transform="translate(105.82 10.04)">Z</text><text class="cls-11" transform="translate(5.97 140.31)">X</text><path class="cls-9" d="M116.35,75.19a11.35,11.35,0,0,1,5.08,2.15,4.09,4.09,0,0,1,1.34,4.53c-.72,1.6-2.54,2.65-4.06,3.38a19.05,19.05,0,0,1-5.23,1.58,39.39,39.39,0,0,1-5.42.47,32.1,32.1,0,0,1-6.2-.29c-3.4-.56-6.88-2.16-8.65-5.26a5.54,5.54,0,0,1-.85-2.84A2.71,2.71,0,0,1,94,76.59a22.73,22.73,0,0,1,6.45-2.32c.63-.13.37-1.1-.26-1a24.2,24.2,0,0,0-6.54,2.33,4.35,4.35,0,0,0-1.91,1.79,4.18,4.18,0,0,0-.18,2.79c.9,3.72,4.47,6.24,7.95,7.27a24.09,24.09,0,0,0,6.87.83,45.56,45.56,0,0,0,6.5-.39,21.8,21.8,0,0,0,5.93-1.6,10.29,10.29,0,0,0,4.63-3.51,4.77,4.77,0,0,0-.67-5.58c-1.5-1.81-3.9-2.5-6.1-3-.63-.15-.89.81-.27,1Z"/><path class="cls-9" d="M98.85,72.12a28.87,28.87,0,0,1,2.72,2.09V73.5a5.62,5.62,0,0,0-1.63,3,.51.51,0,0,0,.35.61.51.51,0,0,0,.62-.35,4.65,4.65,0,0,1,1.36-2.57.5.5,0,0,0,0-.71,27.56,27.56,0,0,0-2.92-2.24c-.54-.36-1,.51-.5.86Z"/><path class="cls-9" d="M100.6,43.51a10.76,10.76,0,0,0-5.23,2.29,5.3,5.3,0,0,0-1.72,4.64C94,52.27,95.53,53.6,97,54.57a16.83,16.83,0,0,0,5.29,2.19,32.6,32.6,0,0,0,5.74.77,28.06,28.06,0,0,0,6.54-.21c3.56-.63,7.08-2.64,8.6-6.06.86-1.92.91-4.07-.9-5.42a19.09,19.09,0,0,0-6.46-2.8.5.5,0,0,0-.27,1,22.63,22.63,0,0,1,5.27,2.09,3.92,3.92,0,0,1,1.75,1.54,3.61,3.61,0,0,1-.12,2.79c-1.15,3.07-4.16,5-7.24,5.74a21.83,21.83,0,0,1-5.82.43,40.67,40.67,0,0,1-5-.45c-3.16-.52-6.7-1.63-8.85-4.16a3.82,3.82,0,0,1,.19-5.09c1.3-1.5,3.32-2,5.17-2.43.63-.13.37-1.1-.26-1Z"/><path class="cls-9" d="M116.28,43.27a8.45,8.45,0,0,1,3.2-1.09.52.52,0,0,0,.5-.5c0-.25-.23-.54-.5-.5a9.78,9.78,0,0,0-3.71,1.22.5.5,0,0,0,.51.87Z"/><path class="cls-9" d="M115.1,43.29A12.44,12.44,0,0,0,116,46.9a.52.52,0,0,0,.62.35.5.5,0,0,0,.35-.61,11.59,11.59,0,0,1-.83-3.35.51.51,0,0,0-.5-.5.5.5,0,0,0-.5.5Z"/><path class="cls-9" d="M68.91,127.69a10.67,10.67,0,0,0,2.34,5.21,5.29,5.29,0,0,0,4.65,1.67c1.82-.34,3.14-1.91,4.1-3.39a16.84,16.84,0,0,0,2.14-5.31,33.61,33.61,0,0,0,.72-5.75,28.08,28.08,0,0,0-.28-6.54c-.65-3.56-2.7-7-6.13-8.54-1.93-.84-4.08-.88-5.42.95a18.84,18.84,0,0,0-2.73,6.48c-.16.63.81.9,1,.27a22.83,22.83,0,0,1,2-5.29,3.84,3.84,0,0,1,1.52-1.76,3.65,3.65,0,0,1,2.79.08c3.08,1.12,5,4.11,5.81,7.18a22.28,22.28,0,0,1,.48,5.82,38.91,38.91,0,0,1-.4,5C81,127,80,130.54,77.44,132.7a3.82,3.82,0,0,1-5.09-.13c-1.51-1.28-2-3.3-2.48-5.15-.14-.63-1.11-.36-1,.27Z"/><path class="cls-9" d="M68.75,127.27l-2.08,3.67a.52.52,0,0,0,.18.69.52.52,0,0,0,.69-.18l2.07-3.68a.5.5,0,0,0-.17-.68.51.51,0,0,0-.69.18Z"/><path class="cls-9" d="M69.32,127.93l1.63.25a5.17,5.17,0,0,1,.68.16l.18.06.06,0,.18.09.1.07a.51.51,0,0,0,.7,0,.5.5,0,0,0,0-.71,3.41,3.41,0,0,0-1.54-.65c-.57-.1-1.15-.18-1.73-.27a.52.52,0,0,0-.61.35.5.5,0,0,0,.35.62Z"/><path class="cls-9" d="M42.4,134.66a10.82,10.82,0,0,0,2.34,5.2,5.31,5.31,0,0,0,4.65,1.68c1.83-.34,3.15-1.91,4.1-3.39a16.56,16.56,0,0,0,2.14-5.31,32.78,32.78,0,0,0,.73-5.75,28.08,28.08,0,0,0-.28-6.54c-.66-3.56-2.71-7-6.14-8.55-1.92-.84-4.07-.87-5.41,1a18.84,18.84,0,0,0-2.73,6.48.5.5,0,0,0,1,.27,22.2,22.2,0,0,1,2-5.29,3.92,3.92,0,0,1,1.52-1.77,3.65,3.65,0,0,1,2.79.09c3.09,1.12,5.06,4.11,5.81,7.18a21.83,21.83,0,0,1,.49,5.81,40.6,40.6,0,0,1-.4,5c-.48,3.16-1.56,6.73-4.07,8.89a3.81,3.81,0,0,1-5.09-.14c-1.52-1.27-2.06-3.29-2.48-5.14-.15-.63-1.11-.36-1,.27Z"/><path class="cls-9" d="M39.94,116.17a17.78,17.78,0,0,0,.86,2.55c.32.75.73,1.78,1.75,1.41a10.66,10.66,0,0,0,4-2.83c.43-.47-.27-1.18-.71-.71A10.7,10.7,0,0,1,42.62,119c-.11.06-.31.2-.43.19s0,0,0,0-.08-.11-.1-.16c-.17-.31-.31-.64-.45-1a16.46,16.46,0,0,1-.71-2.19c-.15-.62-1.12-.36-1,.27Z"/><text class="cls-12" transform="translate(127.82 47.79)">Z_OUT_LEFT</text><text class="cls-12" transform="translate(127.82 84.18)">Z_OUT_RIGHT</text><text class="cls-13" transform="translate(0 112.37)">X_OUT_DOWN</text><text class="cls-13" transform="translate(47.19 103.21)">X_OUT_UP</text></g></g></svg>